<svg width="50%" height="50%" viewBox="0 0 15 17" fill="#ffffff" xmlns="http://www.w3.org/2000/svg">
<path d="M10.7559 7.72781V4.60042H11.4977V1.36575H7.84868V0H3.64899V1.36575H0V4.60042H0.741785V15.5624H6.73255C7.60704 16.4478 8.83796 17 10.1995 17C12.8465 17 15 14.9132 15 12.3482C15 9.96552 13.1417 7.99589 10.7559 7.72781ZM9.6432 7.72781C8.97367 7.80304 8.34575 8.01214 7.78874 8.32691V4.60042H9.6432V7.72781ZM4.76166 1.07822H6.736V1.36575H4.76166V1.07822ZM1.11268 2.44397H10.385V3.5222H1.11268V2.44397ZM1.85446 4.60042H3.70892V14.4841H1.85446V4.60042ZM4.8216 14.4841V4.60042H6.67606V9.19251C5.88398 10.0223 5.39912 11.1314 5.39912 12.3482C5.39912 13.1177 5.59313 13.8441 5.93598 14.4841H4.8216ZM10.1995 15.9218C8.16609 15.9218 6.51179 14.3187 6.51179 12.3482C6.51179 10.3777 8.16612 8.77462 10.1995 8.77462C12.233 8.77462 13.8873 10.3777 13.8873 12.3482C13.8873 14.3186 12.233 15.9218 10.1995 15.9218Z" fill="#FF0000"/>
<path d="M11.4178 10.4019L10.1952 11.5866L8.97267 10.4019L8.1859 11.1643L9.40847 12.349L8.1859 13.5337L8.97267 14.2961L10.1952 13.1114L11.4178 14.2961L12.2046 13.5337L10.982 12.349L12.2046 11.1643L11.4178 10.4019Z" fill="#FF0000"/>
</svg>
